<?xml version="1.0" encoding="UTF-8"?>
<svg width="256px" height="256px" viewBox="0 0 256 256" version="1.1" xmlns="http://www.w3.org/2000/svg" xmlns:xlink="http://www.w3.org/1999/xlink">
    <!-- Generator: Sketch 42 (36781) - http://www.bohemiancoding.com/sketch -->
    <title>backspace</title>
    <desc>Created with Sketch.</desc>
    <defs></defs>
    <g id="Page-1" stroke="none" stroke-width="1" fill="none" fill-rule="evenodd">
        <g id="backspace" fill="#000000">
            <g transform="translate(24.000000, 52.000000)" id="Group">
                <g>
                    <path d="M52.1379592,138.841923 C59.6938776,146.987779 70.4759184,151.690541 81.64,151.690541 L173.711837,151.690541 C192.474286,151.690541 207.755918,136.574519 207.755918,118.015403 L207.755918,33.7435801 C207.755918,15.1844641 192.474286,0.068441989 173.711837,0.068441989 L81.64,0.068441989 C70.4334694,0.068441989 59.6938776,4.72921547 52.1379592,12.9170608 L4.68,64.0176133 C-1.56,70.7778343 -1.56,80.9391602 4.68,87.6993812 L52.1379592,138.841923 L52.1379592,138.841923 Z M12.3632653,70.987779 L59.8212245,19.8452376 C65.4244898,13.7988287 73.404898,10.3557348 81.682449,10.3557348 L173.754286,10.3557348 C186.786122,10.3557348 197.398367,20.8529724 197.398367,33.7435801 L197.398367,117.973414 C197.398367,130.864022 186.786122,141.36126 173.754286,141.36126 L81.64,141.36126 C73.362449,141.36126 65.3820408,137.918166 59.7787755,131.871757 L12.3632653,80.7292155 C9.77387755,77.9579448 9.77387755,73.7590497 12.3632653,70.987779 L12.3632653,70.987779 Z" id="Shape"></path>
                    <path d="M95.6906122,103.193304 C96.7093878,104.201039 98.0253061,104.704906 99.3836735,104.704906 C100.742041,104.704906 102.057959,104.201039 103.076735,103.193304 L123.367347,83.1225856 L143.657959,103.193304 C144.676735,104.201039 145.992653,104.704906 147.35102,104.704906 C148.709388,104.704906 150.025306,104.201039 151.044082,103.193304 C153.081633,101.177834 153.081633,97.9446851 151.044082,95.9292155 L130.71102,75.8584972 L151.001633,55.787779 C153.039184,53.7723094 153.039184,50.5391602 151.001633,48.5236906 C148.964082,46.508221 145.69551,46.508221 143.657959,48.5236906 L123.367347,68.5944088 L103.076735,48.5236906 C101.039184,46.508221 97.7706122,46.508221 95.7330612,48.5236906 C93.6955102,50.5391602 93.6955102,53.7723094 95.7330612,55.787779 L116.023673,75.8584972 L95.7330612,95.9292155 C93.6955102,97.9446851 93.6955102,101.177414 95.6906122,103.193304 L95.6906122,103.193304 Z" id="Shape"></path>
                </g>
            </g>
        </g>
    </g>
</svg>